<?xml version="1.0" encoding="UTF-8" standalone="no"?>
<!-- Created with Inkscape (http://www.inkscape.org/) -->

<svg
   width="32"
   height="32"
   viewBox="0 0 8.4666665 8.4666666"
   version="1.1"
   id="svg5"
   xml:space="preserve"
   inkscape:version="1.2.1 (9c6d41e410, 2022-07-14)"
   sodipodi:docname="gpdict.svg"
   xmlns:inkscape="http://www.inkscape.org/namespaces/inkscape"
   xmlns:sodipodi="http://sodipodi.sourceforge.net/DTD/sodipodi-0.dtd"
   xmlns="http://www.w3.org/2000/svg"
   xmlns:svg="http://www.w3.org/2000/svg"><sodipodi:namedview
     id="namedview7"
     pagecolor="#ffffff"
     bordercolor="#666666"
     borderopacity="1.0"
     inkscape:showpageshadow="2"
     inkscape:pageopacity="0.0"
     inkscape:pagecheckerboard="0"
     inkscape:deskcolor="#d1d1d1"
     inkscape:document-units="mm"
     showgrid="true"
     inkscape:zoom="12.449783"
     inkscape:cx="15.662924"
     inkscape:cy="23.293579"
     inkscape:window-width="1916"
     inkscape:window-height="1036"
     inkscape:window-x="0"
     inkscape:window-y="20"
     inkscape:window-maximized="1"
     inkscape:current-layer="layer1"><inkscape:grid
       type="xygrid"
       id="grid113" /></sodipodi:namedview><defs
     id="defs2" /><g
     inkscape:label="Layer 1"
     inkscape:groupmode="layer"
     id="layer1"><path
       style="fill:#f1d6a0;fill-opacity:1;stroke:#000000;stroke-width:0.15875;stroke-linecap:butt;stroke-linejoin:miter;stroke-dasharray:none;stroke-opacity:1"
       d="M 7.6265518,5.1498468 C 7.2084861,5.8708386 7.403119,6.0768082 7.4885549,6.3745665 L 3.2117741,7.567469 2.6481688,7.016167 3.0252656,6.2450125 Z"
       id="path10189"
       sodipodi:nodetypes="cccccc" /><path
       style="opacity:1;fill:#af2121;fill-opacity:1;stroke:#000000;stroke-width:0.264583px;stroke-linecap:round;stroke-linejoin:bevel;stroke-opacity:1"
       d="M 3.5757331,7.8277478 7.7659374,6.6051251 c 0.159407,-0.06864 0.10525,-0.6790311 -0.3095635,-0.6167195 -0.036144,0.2493706 0.038009,0.093782 0.00391,0.2990643 C 7.4459037,6.3740216 3.5149651,7.5357546 3.2016814,7.443209 2.7114472,7.2983913 2.706132,6.702535 3.0452718,6.362407 3.4329104,5.9736389 7.3326935,5.2691624 7.4084653,5.1805019 7.6213969,5.1121877 7.9739425,5.0240412 8.0867342,4.8931401 8.1518421,4.8010081 7.9385109,4.5056532 7.8993376,4.4490448 6.9720476,3.1090379 6.1979965,1.2573046 5.8340493,0.30244304 4.2120866,0.36416438 3.1918544,0.68650922 1.4632638,1.0888058 0.51922702,1.3913827 0.355218,2.4606496 0.41724852,2.8187539 L 2.5624815,7.4140107 c 0.3572282,0.4417591 0.6868484,0.4528407 1.0132516,0.4137371 z"
       id="path10179"
       sodipodi:nodetypes="cccsssccsccccc" /><path
       style="fill:none;stroke:#000000;stroke-width:0.264583px;stroke-linecap:round;stroke-linejoin:miter;stroke-opacity:1"
       d="M 1.3365316,1.2199878 3.3577035,5.6395744"
       id="path10185"
       sodipodi:nodetypes="cc" /><path
       style="fill:#ac3c24;stroke:#000000;stroke-width:0.15875;stroke-linecap:butt;stroke-linejoin:miter;stroke-dasharray:none;stroke-opacity:1;fill-opacity:1"
       d="M 0.81347378,3.5470483 C 1.2014242,2.7160028 1.6787535,2.5316232 1.9300074,2.491302 L 2.2045173,3.0552134 C 1.3748177,3.1817571 1.2557541,3.7774502 1.1197407,4.3082982 Z"
       id="path10187"
       sodipodi:nodetypes="ccccc" /><path
       style="fill:#ac3c24;stroke:#000000;stroke-width:0.15875;stroke-linecap:butt;stroke-linejoin:miter;stroke-dasharray:none;stroke-opacity:1;fill-opacity:1"
       d="M 3.1333511,5.0812511 C 2.3036515,5.2077948 2.2850782,5.6363294 2.0011229,6.3296232 L 1.7346009,5.6791233 C 1.8706143,5.1482753 2.0316419,4.579243 2.8613415,4.4526993 Z"
       id="path10187-5-5"
       sodipodi:nodetypes="ccccc" /><path
       style="fill:none;stroke:#000000;stroke-width:0.079375;stroke-linecap:round;stroke-linejoin:miter;stroke-opacity:1;stroke-dasharray:none"
       d="M 7.3480027,5.6447832 5.2912512,6.1542175"
       id="path10191" /><path
       style="opacity:1;fill:#d10000;fill-opacity:1;stroke:#000000;stroke-width:0.132292;stroke-linecap:round;stroke-linejoin:round;stroke-dasharray:none;stroke-opacity:1"
       d="M 4.1241921,6.844839 4.7383183,6.7060531 C 4.9220762,7.1476697 5.2067277,7.5892862 5.1170972,8.0309028 4.9871412,7.9175006 4.9044808,7.8518586 4.8021769,7.7254305 4.747758,8.0225607 4.5138569,8.0782989 4.3203489,8.1883633 4.4119261,7.746132 4.4128116,7.2482183 4.1241921,6.844839 Z"
       id="path10277"
       sodipodi:nodetypes="cccccc" /><path
       style="fill:#adadad;fill-opacity:1;stroke:#000000;stroke-width:0.132292;stroke-linecap:butt;stroke-linejoin:miter;stroke-dasharray:none;stroke-opacity:1"
       d="m 5.1289334,0.3563977 c 0.06797,0.46992437 0.6487131,0.6459485 1.0074062,0.50728789 L 5.8783216,0.29187604 Z"
       id="path10279-6"
       sodipodi:nodetypes="cccc" /><path
       style="fill:#adadad;fill-opacity:1;stroke:#000000;stroke-width:0.132292;stroke-linecap:butt;stroke-linejoin:round;stroke-dasharray:none;stroke-opacity:1"
       d="M 7.8119516,4.244621 C 7.3420272,4.312591 7.269544,5.1564414 7.32053,5.2590107 7.6845847,5.1579646 8.0212609,5.0748173 8.1538487,4.8850949 8.2245415,4.7657565 8.026336,4.4839906 7.8119516,4.244621 Z"
       id="path10279-6-2"
       sodipodi:nodetypes="cccc" /><path
       style="fill:#ffeb64;fill-opacity:1;stroke:#000000;stroke-width:0.18520833;stroke-linecap:butt;stroke-linejoin:round;stroke-dasharray:none;stroke-opacity:1"
       d="M 4.1239273,1.5342935 4.0051318,2.3132748 3.263416,2.7487034 3.986819,3.1436396 4.2524178,3.9422104 4.8378563,3.3853824 5.727489,3.4503058 5.336036,2.6800732 5.6017183,1.9321589 4.7657324,2.0532956 Z"
       id="path13024"
       sodipodi:nodetypes="ccccccccccc" /></g></svg>
